# xmcd CD database file
#
# Track frame offsets:
#	150
#	27467
#	51400
#	78741
#	95134
#	117659
#	138348
#	165965
#	196242
#	215935
#	242056
#
# Disc length: 3769 seconds
#
# Revision: 0
# Processed by: cddbd v1.5.1PL0 Copyright (c) Steve Scherf et al.
# Submitted via: CDex 1.51
#
DISCID=a60eb70b
DTITLE=Rich Calderone - Lara Holley - CorePower Vol 1.
DYEAR=1900
DGENRE=New Age
TTITLE0=Chnage
TTITLE1=Vayu
TTITLE2=The Deeper Stream
TTITLE3=Illumination
TTITLE4=Inner Dimension
TTITLE5=Chante
TTITLE6=Namah Shivia
TTITLE7=Lucid
TTITLE8=Matsyasana
TTITLE9=Ajna
TTITLE10=Shavasana
EXTD=
EXTT0=
EXTT1=
EXTT2=
EXTT3=
EXTT4=
EXTT5=
EXTT6=
EXTT7=
EXTT8=
EXTT9=
EXTT10=
PLAYORDER=
